<svg id="visual" viewBox="0 0 675 900" width="675" height="900" xmlns="http://www.w3.org/2000/svg" xmlns:xlink="http://www.w3.org/1999/xlink" version="1.1"><rect x="0" y="0" width="675" height="900" fill="#2D3250"></rect><path d="M0 531L45 531L45 561L90 561L90 436L135 436L135 468L180 468L180 429L225 429L225 508L270 508L270 561L315 561L315 447L360 447L360 440L405 440L405 426L450 426L450 518L495 518L495 555L540 555L540 464L585 464L585 480L630 480L630 540L675 540L675 439L675 901L675 901L630 901L630 901L585 901L585 901L540 901L540 901L495 901L495 901L450 901L450 901L405 901L405 901L360 901L360 901L315 901L315 901L270 901L270 901L225 901L225 901L180 901L180 901L135 901L135 901L90 901L90 901L45 901L45 901L0 901Z" fill="#f9caa1"></path><path d="M0 536L45 536L45 679L90 679L90 560L135 560L135 646L180 646L180 625L225 625L225 596L270 596L270 570L315 570L315 511L360 511L360 598L405 598L405 673L450 673L450 679L495 679L495 544L540 544L540 594L585 594L585 655L630 655L630 683L675 683L675 606L675 901L675 901L630 901L630 901L585 901L585 901L540 901L540 901L495 901L495 901L450 901L450 901L405 901L405 901L360 901L360 901L315 901L315 901L270 901L270 901L225 901L225 901L180 901L180 901L135 901L135 901L90 901L90 901L45 901L45 901L0 901Z" fill="#f7b987"></path><path d="M0 713L45 713L45 718L90 718L90 660L135 660L135 705L180 705L180 672L225 672L225 619L270 619L270 748L315 748L315 627L360 627L360 707L405 707L405 718L450 718L450 629L495 629L495 772L540 772L540 711L585 711L585 631L630 631L630 654L675 654L675 746L675 901L675 901L630 901L630 901L585 901L585 901L540 901L540 901L495 901L495 901L450 901L450 901L405 901L405 901L360 901L360 901L315 901L315 901L270 901L270 901L225 901L225 901L180 901L180 901L135 901L135 901L90 901L90 901L45 901L45 901L0 901Z" fill="#eea66e"></path><path d="M0 842L45 842L45 784L90 784L90 838L135 838L135 739L180 739L180 841L225 841L225 750L270 750L270 851L315 851L315 730L360 730L360 815L405 815L405 844L450 844L450 737L495 737L495 777L540 777L540 775L585 775L585 832L630 832L630 748L675 748L675 737L675 901L675 901L630 901L630 901L585 901L585 901L540 901L540 901L495 901L495 901L450 901L450 901L405 901L405 901L360 901L360 901L315 901L315 901L270 901L270 901L225 901L225 901L180 901L180 901L135 901L135 901L90 901L90 901L45 901L45 901L0 901Z" fill="#de9156"></path></svg>