<svg id="visual" viewBox="0 0 675 900" width="675" height="900" xmlns="http://www.w3.org/2000/svg" xmlns:xlink="http://www.w3.org/1999/xlink" version="1.1"><rect x="0" y="0" width="675" height="900" fill="#2D3250"></rect><path d="M0 598L28.2 560.7C56.3 523.3 112.7 448.7 169 423.7C225.3 398.7 281.7 423.3 337.8 459C394 494.7 450 541.3 506.2 578.7C562.3 616 618.7 644 646.8 658L675 672L675 901L646.8 901C618.7 901 562.3 901 506.2 901C450 901 394 901 337.8 901C281.7 901 225.3 901 169 901C112.7 901 56.3 901 28.2 901L0 901Z" fill="#f9caa1"></path><path d="M0 666L28.2 663.8C56.3 661.7 112.7 657.3 169 629.3C225.3 601.3 281.7 549.7 337.8 568.3C394 587 450 676 506.2 671.3C562.3 666.7 618.7 568.3 646.8 519.2L675 470L675 901L646.8 901C618.7 901 562.3 901 506.2 901C450 901 394 901 337.8 901C281.7 901 225.3 901 169 901C112.7 901 56.3 901 28.2 901L0 901Z" fill="#f7b987"></path><path d="M0 813L28.2 797.8C56.3 782.7 112.7 752.3 169 743.3C225.3 734.3 281.7 746.7 337.8 753.2C394 759.7 450 760.3 506.2 752.8C562.3 745.3 618.7 729.7 646.8 721.8L675 714L675 901L646.8 901C618.7 901 562.3 901 506.2 901C450 901 394 901 337.8 901C281.7 901 225.3 901 169 901C112.7 901 56.3 901 28.2 901L0 901Z" fill="#eea66e"></path><path d="M0 811L28.2 815.3C56.3 819.7 112.7 828.3 169 820.3C225.3 812.3 281.7 787.7 337.8 780.3C394 773 450 783 506.2 801.3C562.3 819.7 618.7 846.3 646.8 859.7L675 873L675 901L646.8 901C618.7 901 562.3 901 506.2 901C450 901 394 901 337.8 901C281.7 901 225.3 901 169 901C112.7 901 56.3 901 28.2 901L0 901Z" fill="#de9156"></path></svg>